<svg xmlns="http://www.w3.org/2000/svg" xmlns:xlink="http://www.w3.org/1999/xlink" viewBox="0 0 344.45 110.85"><defs><style>.cls-1{fill:none;}.cls-2{font-size:25.1px;fill:#fff;font-family:WanpakuGN-Ultra, WanpakuGN Ultra-83pv-RKSJ-H;}.cls-3{clip-path:url(#clip-path);}.cls-4{fill:#f5f257;}.cls-5{fill:url(#新規パターン_4);}</style><clipPath id="clip-path"><rect id="背景文字" class="cls-1" x="1227" y="-1049.28" width="320" height="1598.66"/></clipPath><pattern id="新規パターン_4" data-name="新規パターン 4" width="212.77" height="165.56" patternTransform="translate(-169.79 -656.78)" patternUnits="userSpaceOnUse" viewBox="0 0 212.77 165.56"><rect class="cls-1" width="212.77" height="165.56"/><text class="cls-2" transform="matrix(0.93, -0.36, 0.36, 0.93, 192.47, 141.38)">モヤ</text><text class="cls-2" transform="matrix(0.93, -0.36, 0.36, 0.93, 86.08, 182.77)">モヤ</text><text class="cls-2" transform="matrix(0.93, -0.36, 0.36, 0.93, -20.31, 141.38)">モヤ</text><text class="cls-2" transform="matrix(0.93, -0.36, 0.36, 0.93, 192.47, 58.6)">モヤ</text><text class="cls-2" transform="matrix(0.93, -0.36, 0.36, 0.93, 86.08, 99.99)">モヤ</text><text class="cls-2" transform="matrix(0.93, -0.36, 0.36, 0.93, -20.31, 58.6)">モヤ</text><text class="cls-2" transform="matrix(0.93, -0.36, 0.36, 0.93, 86.08, 17.21)">モヤ</text></pattern></defs><title>yellowdiagonally</title><g id="SP"><g id="ファーストビュー01のコピー"><g class="cls-3"><g id="背景文字-2" data-name="背景文字"><rect class="cls-4" x="392.71" y="-1198.72" width="1867.07" height="1386.44" transform="translate(195.26 352.01) rotate(-16.3)"/><path class="cls-5" d="M2026.77-1431.63,2415.78-103,625.72,420.64,236.71-908l1790.06-523.62m.68-1.24L235.46-908.7,625,421.88,2417-102.29,2027.44-1432.87Z"/></g></g></g></g><g id="ガイド"><polygon class="cls-4" points="0 110.85 344 110.85 344 4.07 0 104.83 0 110.85"/></g></svg>